<svg xmlns="http://www.w3.org/2000/svg" xmlns:xlink="http://www.w3.org/1999/xlink" width="2000" zoomAndPan="magnify" viewBox="0 0 1500 1499.999933" height="2000" preserveAspectRatio="xMidYMid meet" version="1.0"><defs><g/><clipPath id="e866289e00"><rect x="0" width="773" y="0" height="126"/></clipPath><clipPath id="e27c75089a"><rect x="0" width="613" y="0" height="81"/></clipPath><clipPath id="1743c55ab2"><path d="M 656 369 L 1009.5 369 L 1009.5 911.722656 L 656 911.722656 Z M 656 369 " clip-rule="nonzero"/></clipPath><clipPath id="684c26f00a"><path d="M 490.5 312 L 841 312 L 841 848 L 490.5 848 Z M 490.5 312 " clip-rule="nonzero"/></clipPath></defs><g transform="matrix(1, 0, 0, 1, 371, 990)"><g clip-path="url(#e866289e00)"><g fill="#272626" fill-opacity="1"><g transform="translate(1.895493, 90.330623)"><g><path d="M 0.796875 -65.828125 L 0.796875 -82.28125 L 58.640625 -82.28125 L 58.640625 -65.828125 L 39.09375 -65.828125 L 39.09375 0 L 20.34375 0 L 20.34375 -65.828125 Z M 0.796875 -65.828125 "/></g></g></g><g fill="#272626" fill-opacity="1"><g transform="translate(76.896329, 90.330623)"><g><path d="M 47.765625 -82.28125 L 80.984375 0 L 60.84375 0 L 54.75 -16.453125 L 23.4375 -16.453125 L 17.359375 0 L -2.796875 0 L 30.421875 -82.28125 Z M 48.375 -32.90625 L 39.203125 -56.84375 L 39 -56.84375 L 29.828125 -32.90625 Z M 48.375 -32.90625 "/></g></g></g><g fill="#272626" fill-opacity="1"><g transform="translate(170.645661, 90.330623)"><g><path d="M 5.984375 -82.28125 L 35.40625 -82.28125 C 43.320312 -82.28125 49.769531 -80.164062 54.75 -75.9375 C 59.738281 -71.71875 62.234375 -65.6875 62.234375 -57.84375 C 62.234375 -51.789062 60.71875 -46.71875 57.6875 -42.625 C 54.664062 -38.539062 50.5625 -35.671875 45.375 -34.015625 L 73.703125 0 L 49.859375 0 L 24.734375 -32.515625 L 24.734375 0 L 5.984375 0 Z M 24.734375 -45.78125 L 26.921875 -45.78125 C 28.648438 -45.78125 30.113281 -45.8125 31.3125 -45.875 C 32.507812 -45.945312 33.875 -46.179688 35.40625 -46.578125 C 36.9375 -46.972656 38.164062 -47.535156 39.09375 -48.265625 C 40.019531 -49.003906 40.816406 -50.070312 41.484375 -51.46875 C 42.148438 -52.863281 42.484375 -54.554688 42.484375 -56.546875 C 42.484375 -58.546875 42.148438 -60.242188 41.484375 -61.640625 C 40.816406 -63.035156 40.019531 -64.097656 39.09375 -64.828125 C 38.164062 -65.554688 36.9375 -66.117188 35.40625 -66.515625 C 33.875 -66.921875 32.507812 -67.15625 31.3125 -67.21875 C 30.113281 -67.289062 28.648438 -67.328125 26.921875 -67.328125 L 24.734375 -67.328125 Z M 24.734375 -45.78125 "/></g></g></g><g fill="#272626" fill-opacity="1"><g transform="translate(257.61358, 90.330623)"><g><path d="M 47.765625 -82.28125 L 80.984375 0 L 60.84375 0 L 54.75 -16.453125 L 23.4375 -16.453125 L 17.359375 0 L -2.796875 0 L 30.421875 -82.28125 Z M 48.375 -32.90625 L 39.203125 -56.84375 L 39 -56.84375 L 29.828125 -32.90625 Z M 48.375 -32.90625 "/></g></g></g><g fill="#272626" fill-opacity="1"><g transform="translate(351.362912, 90.330623)"><g><path d="M 24.734375 -51.0625 L 24.734375 0 L 5.984375 0 L 5.984375 -82.28125 L 24.734375 -82.28125 L 57.453125 -31.21875 L 57.640625 -31.21875 L 57.640625 -82.28125 L 76.390625 -82.28125 L 76.390625 0 L 57.640625 0 L 24.9375 -51.0625 Z M 24.734375 -51.0625 "/></g></g></g><g fill="#272626" fill-opacity="1"><g transform="translate(449.30072, 90.330623)"><g><path d="M 0.796875 -65.828125 L 0.796875 -82.28125 L 58.640625 -82.28125 L 58.640625 -65.828125 L 39.09375 -65.828125 L 39.09375 0 L 20.34375 0 L 20.34375 -65.828125 Z M 0.796875 -65.828125 "/></g></g></g><g fill="#272626" fill-opacity="1"><g transform="translate(524.301556, 90.330623)"><g><path d="M 24.734375 -82.28125 L 24.734375 0 L 5.984375 0 L 5.984375 -82.28125 Z M 24.734375 -82.28125 "/></g></g></g><g fill="#272626" fill-opacity="1"><g transform="translate(570.581306, 90.330623)"><g><path d="M 24.734375 -51.0625 L 24.734375 0 L 5.984375 0 L 5.984375 -82.28125 L 24.734375 -82.28125 L 57.453125 -31.21875 L 57.640625 -31.21875 L 57.640625 -82.28125 L 76.390625 -82.28125 L 76.390625 0 L 57.640625 0 L 24.9375 -51.0625 Z M 24.734375 -51.0625 "/></g></g></g><g fill="#272626" fill-opacity="1"><g transform="translate(668.519114, 90.330623)"><g><path d="M 2.296875 -41.1875 C 2.296875 -53.09375 6.347656 -63.164062 14.453125 -71.40625 C 22.566406 -79.65625 32.34375 -83.78125 43.78125 -83.78125 C 55.28125 -83.78125 65.050781 -79.671875 73.09375 -71.453125 C 81.144531 -63.242188 85.171875 -53.15625 85.171875 -41.1875 C 85.171875 -29.15625 81.210938 -19.03125 73.296875 -10.8125 C 65.390625 -2.601562 55.550781 1.5 43.78125 1.5 C 31.75 1.5 21.828125 -2.570312 14.015625 -10.71875 C 6.203125 -18.863281 2.296875 -29.019531 2.296875 -41.1875 Z M 22.546875 -41.1875 C 22.546875 -36.863281 23.207031 -32.921875 24.53125 -29.359375 C 25.863281 -25.804688 28.191406 -22.800781 31.515625 -20.34375 C 34.835938 -17.882812 38.925781 -16.65625 43.78125 -16.65625 C 50.757812 -16.65625 56.023438 -19.046875 59.578125 -23.828125 C 63.140625 -28.617188 64.921875 -34.40625 64.921875 -41.1875 C 64.921875 -47.90625 63.109375 -53.671875 59.484375 -58.484375 C 55.867188 -63.304688 50.632812 -65.71875 43.78125 -65.71875 C 37 -65.71875 31.765625 -63.304688 28.078125 -58.484375 C 24.390625 -53.671875 22.546875 -47.90625 22.546875 -41.1875 Z M 22.546875 -41.1875 "/></g></g></g></g></g><g transform="matrix(1, 0, 0, 1, 461, 1108)"><g clip-path="url(#e27c75089a)"><g fill="#272626" fill-opacity="1"><g transform="translate(2.58136, 54.806626)"><g><path d="M 23.25 -53.640625 C 26.09375 -53.640625 28.878906 -53.222656 31.609375 -52.390625 C 34.335938 -51.566406 36.359375 -50.75 37.671875 -49.9375 L 39.59375 -48.65625 L 34.734375 -39.078125 C 34.359375 -39.335938 33.828125 -39.664062 33.140625 -40.0625 C 32.460938 -40.46875 31.1875 -41.007812 29.3125 -41.6875 C 27.4375 -42.375 25.691406 -42.71875 24.078125 -42.71875 C 22.078125 -42.71875 20.53125 -42.289062 19.4375 -41.4375 C 18.351562 -40.59375 17.8125 -39.445312 17.8125 -38 C 17.8125 -37.269531 18.066406 -36.597656 18.578125 -35.984375 C 19.085938 -35.367188 19.957031 -34.707031 21.1875 -34 C 22.425781 -33.300781 23.515625 -32.738281 24.453125 -32.3125 C 25.390625 -31.882812 26.835938 -31.242188 28.796875 -30.390625 C 32.203125 -28.941406 35.109375 -26.972656 37.515625 -24.484375 C 39.921875 -21.992188 41.125 -19.175781 41.125 -16.03125 C 41.125 -13.007812 40.582031 -10.367188 39.5 -8.109375 C 38.414062 -5.847656 36.925781 -4.078125 35.03125 -2.796875 C 33.132812 -1.523438 31.035156 -0.582031 28.734375 0.03125 C 26.429688 0.644531 23.941406 0.953125 21.265625 0.953125 C 18.960938 0.953125 16.703125 0.71875 14.484375 0.25 C 12.273438 -0.21875 10.425781 -0.800781 8.9375 -1.5 C 7.445312 -2.195312 6.101562 -2.882812 4.90625 -3.5625 C 3.71875 -4.25 2.847656 -4.828125 2.296875 -5.296875 L 1.46875 -6 L 7.46875 -16.09375 C 7.976562 -15.664062 8.679688 -15.117188 9.578125 -14.453125 C 10.472656 -13.796875 12.054688 -12.914062 14.328125 -11.8125 C 16.609375 -10.707031 18.625 -10.15625 20.375 -10.15625 C 25.4375 -10.15625 27.96875 -11.878906 27.96875 -15.328125 C 27.96875 -16.046875 27.785156 -16.710938 27.421875 -17.328125 C 27.066406 -17.953125 26.429688 -18.570312 25.515625 -19.1875 C 24.597656 -19.800781 23.785156 -20.289062 23.078125 -20.65625 C 22.378906 -21.019531 21.226562 -21.570312 19.625 -22.3125 C 18.03125 -23.0625 16.851562 -23.628906 16.09375 -24.015625 C 12.894531 -25.585938 10.421875 -27.554688 8.671875 -29.921875 C 6.929688 -32.285156 6.0625 -34.828125 6.0625 -37.546875 C 6.0625 -42.273438 7.804688 -46.140625 11.296875 -49.140625 C 14.796875 -52.140625 18.78125 -53.640625 23.25 -53.640625 Z M 23.25 -53.640625 "/></g></g></g><g fill="#272626" fill-opacity="1"><g transform="translate(80.745297, 54.806626)"><g><path d="M 33.96875 -52.6875 L 33.96875 -42.140625 L 15.84375 -42.140625 L 15.84375 -31.671875 L 33.203125 -31.671875 L 33.203125 -21.140625 L 15.84375 -21.140625 L 15.84375 -10.53125 L 33.96875 -10.53125 L 33.96875 0 L 3.828125 0 L 3.828125 -52.6875 Z M 33.96875 -52.6875 "/></g></g></g><g fill="#272626" fill-opacity="1"><g transform="translate(153.03571, 54.806626)"><g><path d="M 31.859375 -10.859375 C 33.691406 -10.859375 35.46875 -11.132812 37.1875 -11.6875 C 38.914062 -12.238281 40.1875 -12.769531 41 -13.28125 L 42.21875 -14.109375 L 47.3125 -3.890625 C 47.144531 -3.765625 46.910156 -3.59375 46.609375 -3.375 C 46.316406 -3.164062 45.625 -2.773438 44.53125 -2.203125 C 43.445312 -1.628906 42.285156 -1.128906 41.046875 -0.703125 C 39.816406 -0.273438 38.203125 0.101562 36.203125 0.4375 C 34.203125 0.78125 32.140625 0.953125 30.015625 0.953125 C 25.117188 0.953125 20.476562 -0.25 16.09375 -2.65625 C 11.707031 -5.0625 8.171875 -8.367188 5.484375 -12.578125 C 2.804688 -16.796875 1.46875 -21.351562 1.46875 -26.25 C 1.46875 -29.945312 2.253906 -33.5 3.828125 -36.90625 C 5.398438 -40.3125 7.492188 -43.226562 10.109375 -45.65625 C 12.734375 -48.082031 15.789062 -50.019531 19.28125 -51.46875 C 22.769531 -52.914062 26.347656 -53.640625 30.015625 -53.640625 C 33.421875 -53.640625 36.5625 -53.234375 39.4375 -52.421875 C 42.3125 -51.617188 44.34375 -50.8125 45.53125 -50 L 47.3125 -48.78125 L 42.21875 -38.578125 C 41.914062 -38.828125 41.460938 -39.132812 40.859375 -39.5 C 40.265625 -39.863281 39.070312 -40.34375 37.28125 -40.9375 C 35.5 -41.53125 33.691406 -41.828125 31.859375 -41.828125 C 28.960938 -41.828125 26.363281 -41.359375 24.0625 -40.421875 C 21.769531 -39.484375 19.953125 -38.25 18.609375 -36.71875 C 17.273438 -35.1875 16.253906 -33.535156 15.546875 -31.765625 C 14.847656 -30.003906 14.5 -28.207031 14.5 -26.375 C 14.5 -22.375 16 -18.785156 19 -15.609375 C 22 -12.441406 26.285156 -10.859375 31.859375 -10.859375 Z M 31.859375 -10.859375 "/></g></g></g><g fill="#272626" fill-opacity="1"><g transform="translate(236.370913, 54.806626)"><g><path d="M 44.3125 -52.6875 L 44.3125 -18.703125 C 44.3125 -12.234375 42.566406 -7.335938 39.078125 -4.015625 C 35.585938 -0.703125 30.476562 0.953125 23.75 0.953125 C 17.03125 0.953125 11.921875 -0.703125 8.421875 -4.015625 C 4.929688 -7.335938 3.1875 -12.234375 3.1875 -18.703125 L 3.1875 -52.6875 L 15.203125 -52.6875 L 15.203125 -22.21875 C 15.203125 -17.96875 15.867188 -15.007812 17.203125 -13.34375 C 18.546875 -11.6875 20.726562 -10.859375 23.75 -10.859375 C 26.78125 -10.859375 28.960938 -11.6875 30.296875 -13.34375 C 31.640625 -15.007812 32.3125 -17.96875 32.3125 -22.21875 L 32.3125 -52.6875 Z M 44.3125 -52.6875 "/></g></g></g><g fill="#272626" fill-opacity="1"><g transform="translate(319.131522, 54.806626)"><g><path d="M 3.828125 -52.6875 L 22.671875 -52.6875 C 27.734375 -52.6875 31.859375 -51.332031 35.046875 -48.625 C 38.242188 -45.925781 39.84375 -42.0625 39.84375 -37.03125 C 39.84375 -33.164062 38.875 -29.921875 36.9375 -27.296875 C 35 -24.679688 32.375 -22.84375 29.0625 -21.78125 L 47.1875 0 L 31.9375 0 L 15.84375 -20.8125 L 15.84375 0 L 3.828125 0 Z M 15.84375 -29.3125 L 17.234375 -29.3125 C 18.347656 -29.3125 19.285156 -29.332031 20.046875 -29.375 C 20.816406 -29.414062 21.691406 -29.5625 22.671875 -29.8125 C 23.648438 -30.070312 24.4375 -30.4375 25.03125 -30.90625 C 25.625 -31.375 26.132812 -32.054688 26.5625 -32.953125 C 26.988281 -33.847656 27.203125 -34.929688 27.203125 -36.203125 C 27.203125 -37.484375 26.988281 -38.570312 26.5625 -39.46875 C 26.132812 -40.363281 25.625 -41.046875 25.03125 -41.515625 C 24.4375 -41.984375 23.648438 -42.34375 22.671875 -42.59375 C 21.691406 -42.851562 20.816406 -43.003906 20.046875 -43.046875 C 19.285156 -43.085938 18.347656 -43.109375 17.234375 -43.109375 L 15.84375 -43.109375 Z M 15.84375 -29.3125 "/></g></g></g><g fill="#272626" fill-opacity="1"><g transform="translate(400.104537, 54.806626)"><g><path d="M 15.84375 -52.6875 L 15.84375 0 L 3.828125 0 L 3.828125 -52.6875 Z M 15.84375 -52.6875 "/></g></g></g><g fill="#272626" fill-opacity="1"><g transform="translate(455.02975, 54.806626)"><g><path d="M 0.515625 -42.140625 L 0.515625 -52.6875 L 37.546875 -52.6875 L 37.546875 -42.140625 L 25.03125 -42.140625 L 25.03125 0 L 13.03125 0 L 13.03125 -42.140625 Z M 0.515625 -42.140625 "/></g></g></g><g fill="#272626" fill-opacity="1"><g transform="translate(528.341647, 54.806626)"><g><path d="M -1.921875 -52.6875 L 12.515625 -52.6875 L 23.5 -35.828125 L 34.484375 -52.6875 L 48.921875 -52.6875 L 29.5 -23.625 L 29.5 0 L 17.5 0 L 17.5 -23.625 Z M -1.921875 -52.6875 "/></g></g></g></g></g><path fill="#1800ad" d="M 746.386719 521.210938 C 722.210938 522.921875 702.605469 542.371094 700.707031 566.542969 C 699.070312 587.378906 710.375 605.753906 727.429688 614.523438 L 727.429688 679.792969 C 727.429688 692.257812 737.535156 702.363281 750 702.363281 C 762.464844 702.363281 772.570312 692.257812 772.570312 679.792969 L 772.570312 614.523438 C 788.53125 606.316406 799.449219 589.707031 799.449219 570.53125 C 799.449219 542.023438 775.332031 519.148438 746.386719 521.210938 " fill-opacity="1" fill-rule="nonzero"/><g clip-path="url(#1743c55ab2)"><path fill="#ffde59" d="M 849.835938 369.703125 L 656.613281 480.5 L 819.03125 436.5625 L 936.203125 504.214844 C 936.203125 601.976562 897.28125 693.699219 831.855469 762.75 C 780.664062 816.773438 690.335938 871.164062 690.335938 871.164062 C 709.121094 885.816406 729.03125 899.265625 750 911.375 C 910.585938 818.660156 1009.507812 647.320312 1009.507812 461.890625 L 849.835938 369.703125 " fill-opacity="1" fill-rule="nonzero"/></g><g clip-path="url(#684c26f00a)"><path fill="#1800ad" d="M 690.113281 783.722656 C 610.691406 713.804688 563.792969 612.359375 563.792969 504.214844 L 564.019531 504.085938 L 822.730469 354.0625 L 750 312.070312 L 490.496094 461.890625 C 490.496094 610.734375 554.242188 750.492188 662.453125 847.804688 C 662.453125 847.804688 769.582031 791.882812 840.851562 717.296875 L 690.113281 783.722656 " fill-opacity="1" fill-rule="nonzero"/></g></svg>